<?xml version="1.0" encoding="utf-8"?>
<!-- Generator: Adobe Illustrator 21.0.2, SVG Export Plug-In . SVG Version: 6.00 Build 0)  -->
<svg version="1.1" id="レイヤー_1" xmlns="http://www.w3.org/2000/svg" xmlns:xlink="http://www.w3.org/1999/xlink" x="0px"
	 y="0px" width="360px" height="29px" viewBox="0 0 360 29" style="enable-background:new 0 0 360 29;" xml:space="preserve">
<style type="text/css">
	.st0{fill:#005BAC;}
	.st1{fill:#DC1C26;}
</style>
<g>
	<g>
		<g>
			<path class="st0" d="M66.4751053,25.5442314h1.8004761c0.0924225,0,0.2066193-0.0643959,0.2529297-0.1419811
				l7.4612198-12.2137384l4.0573654,13.9759436c0.0253754,0.087326,0.1211929,0.1585655,0.2131653,0.1585655h7.8290558
				c0.0924759,0,0.1451263-0.0712395,0.1163559-0.1585655L79.9468307,1.0161879
				c-0.0270844-0.0873259-0.1256485-0.1585155-0.2166214-0.1585155h-2.9404068
				c-0.0904694,0-0.2070694,0.0628966-0.2563324,0.1395316L66.4751053,16.5967216L56.4152908,0.9972041
				c-0.0490608-0.076635-0.1654091-0.1395316-0.2576332-0.1395316h-2.9403534c-0.0924721,0-0.1895409,0.0711896-0.2163696,0.1585155
				l-8.2593422,26.1482677c-0.0270767,0.087326,0.02388,0.1585655,0.1163559,0.1585655h7.8307533
				c0.0924225,0,0.1860924-0.0712395,0.2134209-0.1585655l4.0561562-13.9759436l7.461422,12.2137384
				c0.0478058,0.0775852,0.160759,0.1419811,0.2529831,0.1419811H66.4751053z"/>
			<g>
				<path class="st0" d="M45.0969925,12.5181808c0-0.0009995,0-0.003397-0.0022011-0.0053959
					c-0.0155869-0.0741367-0.082428-0.1302395-0.160511-0.1302395h-1.0477142h-7.7382851H22.6229057
					c-1.1794491,0-2.136137,0.9571886-2.136137,2.1363878c0,1.1796494,0.9566879,2.136838,2.1380863,2.136838l0,0H35.880909
					c-1.5794601,4.1707611-6.9152336,7.2404575-13.2560539,7.2404575c-7.585865,0-13.7339487-4.3908253-13.7339487-9.8051825
					c0-5.4158058,6.1480837-9.8061314,13.7339487-9.8061314c4.1405373,0,7.8546371,1.3094392,10.3730011,3.3814316
					c0.0095406,0.0072937,0.0175858,0.0136385,0.025631,0.0214319c0.026825,0.0180845,0.0587959,0.0273266,0.0922165,0.0273266
					h9.1170158c0.0907249,0,0.1656113-0.0736375,0.1656113-0.1658592c0-0.0405154-0.014637-0.0760856-0.0395164-0.1049109
					c-0.0036469-0.0082932-0.0097389-0.0121899-0.014389-0.0170355c-3.8797569-4.1346927-11.2584972-6.926774-19.7195702-6.926774
					C10.1298046,0.5005254,0,6.5857134,0,14.0910463c0,7.504384,10.1298046,13.5871248,22.624855,13.5871248
					c12.4933014,0,22.6233597-6.0827408,22.6233597-13.5871248C45.2482147,13.5592976,45.1970062,13.033843,45.0969925,12.5181808z"
					/>
			</g>
			<path class="st0" d="M110.3236542,0.5005254c-12.4928513,0-22.6241531,6.0851879-22.6241531,13.5905209
				c0,7.504384,10.1313019,13.5871248,22.6241531,13.5871248c12.4959564,0,22.6253052-6.0827408,22.6253052-13.5871248
				C132.9489594,6.5857134,122.8196106,0.5005254,110.3236542,0.5005254z M110.3236542,23.8962288
				c-7.5829163,0-13.7297974-4.3908253-13.7297974-9.8051825c0-5.4158058,6.1468811-9.8061314,13.7297974-9.8061314
				c7.5846176,0,13.7341995,4.3903255,13.7341995,9.8061314C124.0578537,19.5054035,117.9082718,23.8962288,110.3236542,23.8962288z
				"/>
		</g>
	</g>
	<path d="M240.314682,6.2866669c-0.0265808-0.0278263-0.0636444-0.0429635-0.1019592-0.0429635h-6.4915466
		c-0.0763702,0-0.1395264,0.059999-0.1429749,0.1366343c-0.5656738,12.4259596-2.3539581,15.3980379-18.6567841,16.0581284
		c-0.0765839,0.0029469-0.1370697,0.0658436-0.1370697,0.1429291v5.5973015c0,0.037569,0.0146332,0.0741882,0.0419617,0.1015148
		c0.0270691,0.0263271,0.0629425,0.0414639,0.1009674,0.0414639h0.0004883
		c18.4745789-0.0751362,25.1286011-5.8144169,25.4276276-21.9325943
		C240.3563995,6.3505626,240.3417664,6.3134942,240.314682,6.2866669z"/>
	<path class="st1" d="M227.7642822,6.2851682c-0.0270844-0.0273266-0.0636444-0.0419645-0.1014709-0.0419645h-5.4619141
		c-0.0790253,0-0.1429291,0.0639458-0.1429291,0.1429791V16.980196c0,0.0395164,0.0160828,0.0770836,0.0448608,0.1044102
		c0.0263367,0.0248795,0.0615082,0.0385685,0.0980682,0.0385685c0.0024567,0,0.0605011-0.0029488,0.0605011-0.0029488
		c3.7870941-0.2000294,5.5158234-0.2912521,5.5443573-10.7335939
		C227.8057556,6.3486142,227.7909088,6.3119955,227.7642822,6.2851682z"/>
	<path class="st1" d="M217.6315308,12.9133453h-1.9331665c-0.15271,0-0.2842102-0.1190491-0.2995453-0.2712698l-0.3459015-3.4194489
		c-0.014389-0.1424294,0.0748749-0.2898045,0.2085724-0.3420105l2.4046631-0.959136
		c0.0541534-0.021482,0.0897675-0.0741372,0.0897675-0.1331868V6.3861828c0-0.0790334-0.0641479-0.1429791-0.1429291-0.1429791
		h-6.4293518c-0.0405121,0-0.0790253,0.0165863-0.1061096,0.0468607c-0.0270691,0.0297747-0.0402679,0.07024-0.0363617,0.1102562
		l1.0718384,10.6106491c0.0073395,0.0731392,0.0687866,0.1287918,0.1422272,0.1287918h5.376297
		c0.0790253,0,0.1429291-0.0643959,0.1429291-0.1429787v-3.9405079
		C217.7744598,12.9772415,217.710556,12.9133453,217.6315308,12.9133453z"/>
	<path d="M173.2234039,0.0014488L146.641449,0c-0.0597534,0-0.1134033,0.0375681-0.13414,0.0936705
		c-1.5619202,4.2448993-5.7165985,7.2423563-9.0133514,8.0088062c-0.0648956,0.0151367-0.1109924,0.0726881-0.1109924,0.1395311
		v6.1056709c0,0.0414648,0.0185242,0.0809813,0.0502472,0.1088076c0.0260773,0.0219316,0.0592957,0.0341206,0.092926,0.0341206
		c0.0073395,0,0.0148773-0.0009489,0.0222168-0.0019484c5.9195404-0.9289112,10.7774658-4.0121965,12.995575-8.2478523
		l0.0402222-0.077085h15.5085907l-0.0151215,0.1570668c-0.9894257,10.2144852-9.2728882,15.4815178-25.3239746,16.1030407
		c-0.0768433,0.0029469-0.1373444,0.0658436-0.1375885,0.1429291l-0.0046387,5.6051445
		c0,0.038517,0.015625,0.0755863,0.0431519,0.101963c0.026886,0.0268269,0.0626984,0.040966,0.1000214,0.040966
		c0.0010071,0,0.0021973,0,0.0031891,0c10.5986633-0.235651,18.7474976-2.4730034,24.2199097-6.6496086
		c5.6077881-4.2791214,8.4301453-10.6228399,8.3888855-18.853157V0.1443775
		C173.3665771,0.0653446,173.3024292,0.0014488,173.2234039,0.0014488z"/>
	<g>
		<path d="M184.3750916,16.265501V0.1434283c0-0.079033-0.0639496-0.1429787-0.1429901-0.1429787h-7.0030518
			c-0.0790253,0-0.1431732,0.0639458-0.1431732,0.1429787V16.265501c0,0.0785351,0.0641479,0.1429291,0.1431732,0.1429291h7.0030518
			C184.311142,16.4084301,184.3750916,16.3440361,184.3750916,16.265501z"/>
		<path d="M207.1470184,0.0004496h-7.1511688c-0.0787964,0-0.1429443,0.0639458-0.1429443,0.1429787v8.633276
			c0,11.2175331-4.8850098,12.5098877-18.8448639,13.3422318c-0.0753326,0.0043468-0.1346283,0.0667934-0.1346283,0.1424294
			v5.9109859c0,0.0385666,0.0158386,0.0756359,0.0434113,0.1029625c0.026825,0.025877,0.0626984,0.0400162,0.099762,0.0400162
			c0.0012512,0,0.0027008,0,0.003891,0c19.641098-0.5508327,26.2694702-5.3718929,26.2694702-19.104393V0.1434283
			C207.2899475,0.0643954,207.226059,0.0004496,207.1470184,0.0004496z"/>
	</g>
	<path d="M279.9195557,0.0014488L253.3375854,0c-0.060257,0-0.1134491,0.0375681-0.1341858,0.0936705
		c-1.5621185,4.245399-5.7167969,7.2423563-9.0136108,8.0088062c-0.0643768,0.0151367-0.1102448,0.0726881-0.1102448,0.1395311
		v6.1056709c0,0.0414648,0.0183258,0.0809813,0.0497589,0.1088076c0.026123,0.0219316,0.0590515,0.0341206,0.0932159,0.0341206
		c0.0072937,0,0.0146332-0.0009489,0.0221863-0.0019484c5.9192657-0.9289112,10.7772522-4.0121965,12.9950714-8.2478523
		l0.0405273-0.077085h15.5085449l-0.0151672,0.1570668c-0.9898376,10.2144852-9.2728577,15.4815178-25.3239594,16.1030407
		c-0.076828,0.0029469-0.1375732,0.0658436-0.1375732,0.1429291l-0.0043945,5.6051445
		c0,0.038517,0.0153809,0.0755863,0.0429535,0.101963c0.0265808,0.0268269,0.0624542,0.040966,0.1000214,0.040966
		c0.000946,0,0.0019531,0,0.0028992,0c10.5989532-0.235651,18.7475433-2.4730034,24.2199554-6.6496086
		c5.6080322-4.2791214,8.4308472-10.6228399,8.3888855-18.853157V0.1443775
		C280.0624695,0.0653446,279.9980774,0.0014488,279.9195557,0.0014488z"/>
	<g>
		<path d="M295.4951782,19.3678207h-10.7087097c-0.0785522,0-0.1429443,0.064394-0.1429443,0.1429787l-0.0024414,8.6678963
			c0,0.037569,0.0151367,0.0741882,0.0419617,0.1010151s0.063446,0.0419636,0.1010132,0.0419636h10.7111206
			c0.0790405,0,0.1424255-0.0643959,0.1424255-0.1429787v-8.6678963
			C295.6376038,19.4322147,295.5742188,19.3678207,295.4951782,19.3678207z M288.4933167,25.4413185v-3.1970387h3.3057861v3.1970387
			H288.4933167z"/>
		<path d="M284.7972107,3.2852631h10.6969604c0.0790405,0,0.1424866-0.0638957,0.1424866-0.1429286V0.1429287
			c0-0.079033-0.063446-0.1429287-0.1424866-0.1429287h-10.6969604c-0.0790405,0-0.1429443,0.0638958-0.1429443,0.1429287v2.9994056
			C284.6542664,3.2213674,284.7181702,3.2852631,284.7972107,3.2852631z"/>
		<path d="M284.6542664,17.5446663c0,0.0790329,0.0639038,0.1429291,0.1429443,0.1429291h10.6969604
			c0.0790405,0,0.1424866-0.0638962,0.1424866-0.1429291V14.709672c0-0.0790329-0.063446-0.1429291-0.1424866-0.1429291h-10.6969604
			c-0.0790405,0-0.1429443,0.0638962-0.1429443,0.1429291V17.5446663z"/>
		<path d="M320.5432739,3.8263042c0.0790405,0,0.1434326-0.0638959,0.1434326-0.1429288V0.1429287
			C320.6867065,0.0638958,320.6223145,0,320.5432739,0h-21.7754822c-0.0780945,0-0.1424866,0.0638958-0.1424866,0.1429287v3.5404465
			c0,0.0790329,0.0643921,0.1429288,0.1424866,0.1429288h9.3455811v20.493866l-3.0228271,0.0102406V8.1766634
			c0-0.0785828-0.0634155-0.1429787-0.1424561-0.1429787h-4.8523254c-0.0790405,0-0.1424866,0.0643959-0.1424866,0.1429787
			v16.1527977l-1.9846191,0.000948c-0.07901,0-0.1424561,0.0638962-0.1424561,0.1429787v3.7063065
			c0,0.0375671,0.0146484,0.0741367,0.0419617,0.1009636c0.0263367,0.0268784,0.062439,0.0419655,0.1004944,0.0419655
			l22.5746155-0.0009499c0.0790405,0,0.1434326-0.0643959,0.1434326-0.1429787v-3.7058067
			c0-0.0790329-0.0643921-0.1429787-0.1434326-0.1429787h-6.6632996v-9.2196779h5.8397522
			c0.0790405,0,0.1424866-0.0639458,0.1424866-0.1429787v-4.065402c0-0.0790329-0.063446-0.1429281-0.1424866-0.1429281h-5.8397522
			V3.8263042H320.5432739z"/>
		<path d="M284.8079224,12.8323641h10.6862488c0.0790405,0,0.1424866-0.064395,0.1424866-0.1429281V9.8885612
			c0-0.0785332-0.063446-0.1429281-0.1424866-0.1429281h-10.6862488c-0.07901,0-0.1429138,0.064395-0.1429138,0.1429281v2.8008747
			C284.6650085,12.7679691,284.7289124,12.8323641,284.8079224,12.8323641z"/>
		<path d="M296.5733643,4.7874389h-12.6474915c-0.07901,0-0.1429138,0.0638957-0.1429138,0.1429286v3.0355248
			c0,0.0790334,0.0639038,0.1429286,0.1429138,0.1429286h12.6474915c0.0790405,0,0.1424255-0.0638952,0.1424255-0.1429286V4.9303675
			C296.7157898,4.8513346,296.6524048,4.7874389,296.5733643,4.7874389z"/>
	</g>
	<path d="M360,11.9161415V8.5059347c0-0.0790329-0.063385-0.1429291-0.1424255-0.1429291h-17.5574036l1.0947571-2.1090608
		h15.0673218c0.0790405,0,0.1424866-0.0638957,0.1424866-0.1429291V2.8964429c0-0.0785334-0.063446-0.1429286-0.1424866-0.1429286
		h-3.5477905l0.3415222-0.5595753c0.5698547-0.9367055,0.7923279-1.310938,1.1640625-1.981719
		c0.0253601-0.0444123,0.0243835-0.0985664-0.0019531-0.1419795C356.3927002,0.0263277,356.3458862,0,356.2951355,0h-6.0427246
		c-0.0487366,0-0.0946045,0.0243793-0.1210022,0.0658441c-0.6332397,0.9962049-0.9220581,1.37918-1.778717,2.5154662
		l-0.1297913,0.172204h-3.7878113l0.1736755-0.4922824c0.3434448-0.9732745,0.4810486-1.4211445,0.6439819-2.0841322
		c0.0097656-0.0429635,0-0.0878255-0.0273132-0.1224961C345.1990967,0.019983,345.157135,0,345.1132507,0h-6.4788818
		c-0.0683289,0-0.1278381,0.0492582-0.1405029,0.1170507c-0.1356506,0.7445184-0.2488098,1.2050776-0.5737305,2.3481081
		l-0.0829773,0.2883556h-2.588623L335.12854,2.5417938c-0.6937561-1.2231125-0.8927917-1.5792603-1.3035889-2.4593637
		C333.8005676,0.0321727,333.750824,0,333.6951599,0h-6.35495c-0.0497742,0-0.0965576,0.0253785-0.1219482,0.0682921
		c-0.0263062,0.042414-0.0283203,0.0956189-0.0058289,0.1400312c0.3239136,0.6293162,0.5727539,1.0469619,1.1581421,1.9812193
		l0.3532715,0.5639718h-3.7224426c-0.0780945,0-0.1424866,0.0643952-0.1424866,0.1429286v3.2145729
		c0,0.0790334,0.0643921,0.1429291,0.1424866,0.1429291h11.7175903l-1.478241,2.1090608h-12.0015564
		c-0.0780334,0-0.1424255,0.0638962-0.1424255,0.1429291v3.4102068c0,0.0785332,0.0643921,0.1429291,0.1424255,0.1429291h9.2704773
		l-1.3006287,0.7083988c-3.0082092,1.6246214-4.5050049,2.2676258-8.0039673,3.1199036
		c-0.063446,0.0156364-0.1083069,0.0731878-0.1083069,0.1390324v4.0424709c0,0.042963,0.0195312,0.0844269,0.0536499,0.1117554
		c0.0253601,0.0199814,0.0575256,0.0312233,0.0887756,0.0312233c0.0107422,0,0.0214844-0.0009995,0.032196-0.0034485
		c3.2218933-0.7249336,4.0903015-0.9537411,6.1968994-1.6309166l0.5971375-0.1902885v0.482542
		c0,0.0790329,0.0644226,0.1429291,0.1434631,0.1429291h6.3803101l-0.338562,0.5634708
		c-1.723175,2.8228054-5.9909973,4.5527878-11.7098083,4.7454739c-0.0770874,0.002449-0.1385193,0.0658951-0.1385193,0.1429787
		v3.7117023c0,0.0380173,0.015564,0.0746365,0.0429077,0.1014633c0.0263062,0.026329,0.062439,0.040966,0.1004944,0.040966
		h0.0009766c9.9563904-0.1136532,15.834198-3.0710945,17.9681396-9.0391827l0.0985718-0.2668724h6.5218201l-0.0780945,0.4449215
		c-0.7601013,4.1629696-0.9737549,4.694767-4.0307312,4.694767h-2.776001c-0.0780334,0-0.1424255,0.0633965-0.1424255,0.1429291
		l-0.0048828,3.8834057c0,0.037569,0.0146179,0.0741882,0.0419617,0.1010151
		c0.0273132,0.0268269,0.063385,0.0419636,0.1014709,0.0419636h3.9702759c7.1199036,0,8.6703796-1.4289875,9.2167664-8.4932957
		l0.0380859-0.4532146l0.8917847,0.1912384c0.8225708,0.1780491,1.7241516,0.2702694,2.611084,0.3609924
		c0.2956543,0.0297756,0.5863953,0.0590515,0.8664551,0.0917225c0.0058594,0.0009995,0.0107727,0.0009995,0.0166016,0.0009995
		c0.0351257,0,0.0692444-0.0131893,0.0946045-0.0361195C359.983429,19.9566708,360,19.9181538,360,19.8771877v-3.8776102
		c0-0.0692415-0.0497437-0.1282911-0.1170654-0.1409807c-2.2773438-0.4068546-5.4475098-1.6538467-7.889801-3.1023684
		l-1.1718445-0.6971579h9.0362854C359.936615,12.0590706,360,11.9946747,360,11.9161415z M339.9721069,12.0590706h3.5682678
		l1.0830078,0.9620838c0.4703064,0.4180946,0.8098755,0.7186403,1.5797119,1.3796797l0.7659607,0.6542444h-10.7818604
		l0.888916-0.6698313c1.3572388-1.0206347,1.5641174-1.1859941,2.7681274-2.2144222L339.9721069,12.0590706z"/>
</g>
<g>
</g>
<g>
</g>
<g>
</g>
<g>
</g>
<g>
</g>
<g>
</g>
<g>
</g>
<g>
</g>
<g>
</g>
<g>
</g>
<g>
</g>
<g>
</g>
<g>
</g>
<g>
</g>
<g>
</g>
</svg>
